# xmcd CD database file
# Generated: Wed Mar 26 22:20:44 2003 by KSCD
# 
# Track frame offsets:
#       150
#       21715
#       44979
#       65031
#       88528
#       114588
#       138804
#
# Disc length: 2203 seconds
#
# Revision: 1
# Processed by: cddbd v1.4PL0 Copyright (c) Steve Scherf et al.
# Submitted via: Kscd 1.3.3
#
DISCID=68089907
DTITLE=Terry Reid - River
DYEAR=1900
DGENRE=
TTITLE0=Dean
TTITLE1=Avenue
TTITLE2=Things to Try
TTITLE3=Live Life
TTITLE4=River
TTITLE5=Dream
TTITLE6=Milestones
EXTD=
EXTT0=
EXTT1=
EXTT2=
EXTT3=
EXTT4=
EXTT5=
EXTT6=
PLAYORDER=
